<svg width="100" height="76" viewBox="0 0 100 76" fill="none" xmlns="http://www.w3.org/2000/svg">
<path d="M100 6.75V69.25C100 72.7969 97.2969 75.5 93.75 75.5H87.5V18.7781L50 45.7156L12.5 18.7781V75.5H6.25C2.70313 75.5 0 72.7969 0 69.25V6.75C0 4.975 0.66875 3.4125 1.79063 2.30625C2.37491 1.72165 3.07078 1.26049 3.83686 0.950197C4.60293 0.639902 5.42357 0.486802 6.25 0.5H8.33438L50 30.7094L91.6656 0.5H93.75C95.525 0.5 97.0875 1.16875 98.2094 2.30625C99.3313 3.4125 100 4.975 100 6.75Z" fill="#F5F5F5"/>
</svg>
