<svg width="100" height="100" viewBox="0 0 100 100" fill="none" xmlns="http://www.w3.org/2000/svg">
<path d="M32.5 8.33333H67.5C80.8333 8.33333 91.6667 19.1667 91.6667 32.5V67.5C91.6667 73.9094 89.1205 80.0563 84.5884 84.5884C80.0563 89.1205 73.9094 91.6667 67.5 91.6667H32.5C19.1667 91.6667 8.33333 80.8333 8.33333 67.5V32.5C8.33333 26.0906 10.8795 19.9437 15.4116 15.4116C19.9437 10.8795 26.0906 8.33333 32.5 8.33333ZM31.6667 16.6667C27.6884 16.6667 23.8731 18.247 21.0601 21.0601C18.247 23.8731 16.6667 27.6884 16.6667 31.6667V68.3333C16.6667 76.625 23.375 83.3333 31.6667 83.3333H68.3333C72.3116 83.3333 76.1269 81.753 78.9399 78.9399C81.753 76.1269 83.3333 72.3116 83.3333 68.3333V31.6667C83.3333 23.375 76.625 16.6667 68.3333 16.6667H31.6667ZM71.875 22.9167C73.2563 22.9167 74.5811 23.4654 75.5578 24.4422C76.5346 25.4189 77.0833 26.7437 77.0833 28.125C77.0833 29.5063 76.5346 30.8311 75.5578 31.8078C74.5811 32.7846 73.2563 33.3333 71.875 33.3333C70.4937 33.3333 69.1689 32.7846 68.1921 31.8078C67.2154 30.8311 66.6667 29.5063 66.6667 28.125C66.6667 26.7437 67.2154 25.4189 68.1921 24.4422C69.1689 23.4654 70.4937 22.9167 71.875 22.9167ZM50 29.1667C55.5253 29.1667 60.8244 31.3616 64.7314 35.2686C68.6384 39.1756 70.8333 44.4747 70.8333 50C70.8333 55.5253 68.6384 60.8244 64.7314 64.7314C60.8244 68.6384 55.5253 70.8333 50 70.8333C44.4747 70.8333 39.1756 68.6384 35.2686 64.7314C31.3616 60.8244 29.1667 55.5253 29.1667 50C29.1667 44.4747 31.3616 39.1756 35.2686 35.2686C39.1756 31.3616 44.4747 29.1667 50 29.1667ZM50 37.5C46.6848 37.5 43.5054 38.817 41.1612 41.1612C38.817 43.5054 37.5 46.6848 37.5 50C37.5 53.3152 38.817 56.4946 41.1612 58.8388C43.5054 61.183 46.6848 62.5 50 62.5C53.3152 62.5 56.4946 61.183 58.8388 58.8388C61.183 56.4946 62.5 53.3152 62.5 50C62.5 46.6848 61.183 43.5054 58.8388 41.1612C56.4946 38.817 53.3152 37.5 50 37.5Z" fill="white"/>
</svg>
